<?xml version="1.0" encoding="utf-8"?>
<!-- Generator: Adobe Illustrator 26.2.1, SVG Export Plug-In . SVG Version: 6.00 Build 0)  -->
<svg version="1.1" xmlns="http://www.w3.org/2000/svg" xmlns:xlink="http://www.w3.org/1999/xlink" x="0px" y="0px"
	 viewBox="0 0 400 400" style="enable-background:new 0 0 400 400;" xml:space="preserve">
<style type="text/css">
	.st0{display:none;}
	.st1{display:inline;fill:#F3E107;}
	.st2{display:inline;fill:#BF2134;}
	.st3{display:inline;fill:#223064;}
	.st4{display:inline;}
	.st5{fill:#FFFFFF;}
	.st6{fill:#BF2334;}
	.st7{fill:#F3E107;}
	.st8{fill:#223064;}
</style>
<g id="Layer_2" class="st0">
	<rect y="0" class="st1" width="400" height="400"/>
</g>
<g id="Layer_3" class="st0">
	<rect x="25" y="25" class="st2" width="350" height="350"/>
</g>
<g id="Layer_4" class="st0">
	<rect x="32.5" y="32.5" class="st3" width="335" height="335"/>
</g>
<g id="Layer_1" class="st0">
	<g class="st4">
		<path class="st5" d="M127.5,93.3c2.5,0,4.9,0.3,7.2,0.8l-7.2-26.8l-7.2,26.8C122.6,93.6,125,93.3,127.5,93.3z"/>
		<path class="st5" d="M117.1,94.9L97.5,75.3l7.2,26.8C108.2,98.9,112.4,96.4,117.1,94.9z"/>
		<path class="st5" d="M150.3,102.1l7.2-26.8l-19.6,19.6C142.6,96.4,146.8,98.9,150.3,102.1z"/>
		<path class="st5" d="M187.5,127.3l-26.8-7.2c0.5,2.3,0.8,4.7,0.8,7.2c0,2.5-0.3,4.9-0.8,7.2L187.5,127.3z"/>
		<path class="st5" d="M102.3,104.5l-26.8-7.2l19.6,19.6C96.6,112.2,99.1,108,102.3,104.5z"/>
		<path class="st5" d="M159.9,116.9l19.6-19.6l-26.8,7.2C155.9,108,158.4,112.2,159.9,116.9z"/>
		<path class="st5" d="M93.5,127.3c0-2.5,0.3-4.9,0.8-7.2l-26.8,7.2l26.8,7.2C93.8,132.2,93.5,129.8,93.5,127.3z"/>
		<path class="st5" d="M137.9,159.7l19.6,19.6l-7.2-26.8C146.8,155.7,142.6,158.2,137.9,159.7z"/>
		<path class="st5" d="M152.7,150.1l26.8,7.2l-19.6-19.6C158.4,142.4,155.9,146.6,152.7,150.1z"/>
		<path class="st5" d="M127.5,161.3c-2.5,0-4.9-0.3-7.2-0.8l7.2,26.8l7.2-26.8C132.4,161,130,161.3,127.5,161.3z"/>
		<path class="st5" d="M95.1,137.7l-19.6,19.6l26.8-7.2C99.1,146.6,96.6,142.4,95.1,137.7z"/>
		<path class="st5" d="M104.7,152.5l-7.2,26.8l19.6-19.6C112.4,158.2,108.2,155.7,104.7,152.5z"/>
	</g>
</g>
<g id="Layer_5" class="st0">
	<g class="st4">
		<g>
			<polygon class="st5" points="235.6,332.5 272.2,305.5 310,332.5 295.9,289.1 332.5,261.6 286.9,261.6 272.2,218.2 258.2,261.6 
				212,261.6 249.2,289.1 			"/>
		</g>
	</g>
</g>
<g id="Layer_6">
	<g>
		<rect class="st6" width="400" height="400"/>
	</g>
	<g>
		<rect class="st7" width="400" height="200"/>
	</g>
	<g>
		<rect x="-0.1" y="365.6" class="st5" width="400" height="32.8"/>
	</g>
	<g>
		<rect x="-0.1" y="298.4" class="st5" width="400" height="32.8"/>
	</g>
	<g>
		<rect x="-0.4" y="233.8" class="st5" width="400" height="32.8"/>
	</g>
	<g>
		<g>
			<polygon class="st8" points="56.3,165 95.5,136 135.9,165 120.8,118.6 160,89 111.2,89 95.5,42.6 80.4,89 31,89 70.8,118.6 			
				"/>
		</g>
	</g>
	<g id="Layer_7">
		<g>
			<path class="st8" d="M298.9,63.8c2.9,0,5.7,0.3,8.5,0.9l-8.5-31.6l-8.5,31.6C293.2,64.1,296,63.8,298.9,63.8z"/>
			<path class="st8" d="M286.6,65.7l-23.2-23.2l8.5,31.6C276.1,70.4,281.1,67.5,286.6,65.7z"/>
			<path class="st8" d="M325.9,74.2l8.5-31.6l-23.2,23.2C316.7,67.5,321.7,70.4,325.9,74.2z"/>
			<path class="st8" d="M369.9,104l-31.6-8.5c0.6,2.7,0.9,5.6,0.9,8.5c0,2.9-0.3,5.7-0.9,8.5L369.9,104z"/>
			<path class="st8" d="M269.1,77l-31.6-8.5l23.2,23.2C262.4,86.2,265.4,81.2,269.1,77z"/>
			<path class="st8" d="M337.2,91.7l23.2-23.2L328.7,77C332.5,81.2,335.4,86.2,337.2,91.7z"/>
			<path class="st8" d="M258.7,104c0-2.9,0.3-5.7,0.9-8.5L228,104l31.6,8.5C259.1,109.7,258.7,106.9,258.7,104z"/>
			<path class="st8" d="M311.2,142.3l23.2,23.2l-8.5-31.6C321.7,137.6,316.7,140.5,311.2,142.3z"/>
			<path class="st8" d="M328.7,131l31.6,8.5l-23.2-23.2C335.4,121.8,332.5,126.8,328.7,131z"/>
			<path class="st8" d="M298.9,144.2c-2.9,0-5.7-0.3-8.5-0.9l8.5,31.6l8.5-31.6C304.7,143.9,301.8,144.2,298.9,144.2z"/>
			<path class="st8" d="M260.7,116.3l-23.2,23.2l31.6-8.5C265.4,126.8,262.4,121.8,260.7,116.3z"/>
			<path class="st8" d="M271.9,133.8l-8.5,31.6l23.2-23.2C281.1,140.5,276.1,137.6,271.9,133.8z"/>
		</g>
	</g>
</g>
</svg>
