<?xml version="1.0" encoding="utf-8"?>
<!-- Generator: Adobe Illustrator 26.2.1, SVG Export Plug-In . SVG Version: 6.00 Build 0)  -->
<svg version="1.1" xmlns="http://www.w3.org/2000/svg" xmlns:xlink="http://www.w3.org/1999/xlink" x="0px" y="0px"
	 viewBox="0 0 400 400" style="enable-background:new 0 0 400 400;" xml:space="preserve">
<style type="text/css">
	.st0{fill:#F3E107;}
	.st1{fill:#BF2134;}
	.st2{fill:#223064;}
	.st3{fill:#FFFFFF;}
</style>
<g id="Layer_2">
	<rect y="0" class="st0" width="400" height="400"/>
</g>
<g id="Layer_3">
	<rect x="25" y="25" class="st1" width="350" height="350"/>
</g>
<g id="Layer_4">
	<rect x="32.5" y="32.5" class="st2" width="335" height="335"/>
</g>
<g id="Layer_1">
	<g>
		<path class="st3" d="M127.5,93.3c2.5,0,4.9,0.3,7.2,0.8l-7.2-26.8l-7.2,26.8C122.6,93.6,125,93.3,127.5,93.3z"/>
		<path class="st3" d="M117.1,94.9L97.5,75.3l7.2,26.8C108.2,98.9,112.4,96.4,117.1,94.9z"/>
		<path class="st3" d="M150.3,102.1l7.2-26.8l-19.6,19.6C142.6,96.4,146.8,98.9,150.3,102.1z"/>
		<path class="st3" d="M187.5,127.3l-26.8-7.2c0.5,2.3,0.8,4.7,0.8,7.2c0,2.5-0.3,4.9-0.8,7.2L187.5,127.3z"/>
		<path class="st3" d="M102.3,104.5l-26.8-7.2l19.6,19.6C96.6,112.2,99.1,108,102.3,104.5z"/>
		<path class="st3" d="M159.9,116.9l19.6-19.6l-26.8,7.2C155.9,108,158.4,112.2,159.9,116.9z"/>
		<path class="st3" d="M93.5,127.3c0-2.5,0.3-4.9,0.8-7.2l-26.8,7.2l26.8,7.2C93.8,132.2,93.5,129.8,93.5,127.3z"/>
		<path class="st3" d="M137.9,159.7l19.6,19.6l-7.2-26.8C146.8,155.7,142.6,158.2,137.9,159.7z"/>
		<path class="st3" d="M152.7,150.1l26.8,7.2l-19.6-19.6C158.4,142.4,155.9,146.6,152.7,150.1z"/>
		<path class="st3" d="M127.5,161.3c-2.5,0-4.9-0.3-7.2-0.8l7.2,26.8l7.2-26.8C132.4,161,130,161.3,127.5,161.3z"/>
		<path class="st3" d="M95.1,137.7l-19.6,19.6l26.8-7.2C99.1,146.6,96.6,142.4,95.1,137.7z"/>
		<path class="st3" d="M104.7,152.5l-7.2,26.8l19.6-19.6C112.4,158.2,108.2,155.7,104.7,152.5z"/>
	</g>
</g>
<g id="Layer_5">
	<g>
		<g>
			<polygon class="st3" points="235.6,332.5 272.2,305.5 310,332.5 295.9,289.1 332.5,261.6 286.9,261.6 272.2,218.2 258.2,261.6 
				212,261.6 249.2,289.1 			"/>
		</g>
	</g>
</g>
</svg>
